<?xml version="1.0" encoding="UTF-8"?>
<svg xmlns="http://www.w3.org/2000/svg" viewBox="300 250 800 800" role="img" aria-labelledby="title">
  <title id="title">Wally assistant brandmark avatar</title>
  <defs>
    <style>
      .cls-2 { fill: #7ba64c; }
      .cls-3 { fill: #025d55; }
      .cls-5 { fill: #377b3f; }
    </style>
  </defs>
  <circle cx="700" cy="650" r="380" fill="#edf4e9"/>
  <g id="Paw_Leaf" data-name="Paw Leaf">
      <g>
        <path class="cls-3" d="M612.43,923.43c-5.25-34.33,0-73.4-1.84-108.61-2.81-53.85-18.18-107.51-52.35-149.66-8.18-10.09-18.64-11.84-13.3-26.48,11.19-30.75,50.01-73.57,77.42-91.16,107.27-68.85,182.83,19.64,252.25,91.22,36.35,37.47,61.7,72.71,57.16,128.09-4.44,54.21-54.97,110.09-109.88,115.38-53.3,5.14-98.12-36.74-150.68-5.35-12.75,7.61-21.17,18.62-31.52,28.78"/>
        <path class="cls-3" d="M605.89,282.55c9.26-1.22,16.79.86,25.1,4.67,68.72,31.5,73.54,222.19-19.5,211.34-81.36-9.49-86.24-205.39-5.6-216Z"/>
        <path class="cls-3" d="M794.94,282.52c49.85-1.74,63.27,73.38,61.27,110.8-2.48,46.41-36.22,129.29-96.22,100.6-64.58-30.88-44.46-208.64,34.95-211.41Z"/>
        <path class="cls-3" d="M459.14,406.1c78.73-8.59,128.61,183.1,35.92,184.15-84.48.95-119.7-175.01-35.92-184.15Z"/>
        <path class="cls-3" d="M932.89,406.08c12.6-1.66,24.57,2.1,34.47,9.83,54.04,42.16,11.06,189.55-67.93,172.57-73.83-15.87-35.92-173.24,33.46-182.4Z"/>
      </g>
      <path class="cls-2" d="M729.76,646.94c-42.05,13.36-86.38,39.44-113.1,75.1-2.91,3.88-17.16,24.33-17.16,24.33,0,0,5.79,23.76,6.81,29.92,3.03,18.26,3.93,31.11,4.43,47.78l.22,13.11c.01-1.21.02-2.41.02-3.61,0,.1,0,.19,0,.29.07,3.2.12,6.69.09,10.14l-.12-6.82c-.06,5.8-.19,11.64-.35,17.51,0,.03,0,.08,0,.13-.63,23.32-1.51,46.91,1.81,68.61,0,0,20.06,1.39,21.16-3.87,2.61-12.48,18.66-26.58,20.94-29.25,10.46-12.25,17.16-16.79,28.78-28.97,20.42-21.38,37.65-46.67,47.14-74.94,15.02-44.74,12.18-94.59-.69-139.47Z"/>
      <path class="cls-5" d="M613.5,859.12c10.45-53.09,41.56-99.9,78.48-138.06-10.08,20.58-21.75,40.36-30.76,61.51-16.18,38-27.95,77.46-28.27,119.18-.14,18.24.31,26.04,9.91,42.1,16.57,27.73,48.83,41.42,79.64,46.08-2.1,4.28-8.26,4.11-12.29,4.41-38.28,2.84-75.14-7.42-104.66-32.08-6.52-5.45-11.78-12.57-18.19-18.14-33.35-28.96-76.64-39.78-114.36-61.5-71.15-40.97-120.77-108.04-136.41-189.13-5.87-30.43-8.45-63.58-2.17-93.88,112.64,5.45,214.87,62.98,239.16,179.53,11.17,53.61-1.93,111.84,33.5,158.34,1.1,1.45,7.97,10.11,8.61,10.3,3.18.97,2.07-1.81,1.85-3.31-.96-6.61-4.11-14.36-5.13-21.05"/>
      <path class="cls-2" d="M572.81,907.08l-51.45-66.97c-28.29-45.07-52.16-93.35-86.64-134.26-7.47-8.87-16.9-15.97-23.22-25.46.85-.8,11.34,6.88,12.95,8.1,56.93,42.99,96.93,108.99,128.77,172.06,7.42,14.69,15.46,30.61,19.57,46.53Z"/>
    </g>
</svg>
